<svg xmlns="http://www.w3.org/2000/svg" viewBox="0 0 295 295" width="295" height="295">
  <path d="M 149.0 4.0 L 143.0 4.0 L 133.0 12.0 L 122.0 33.0 L 111.0 32.0 L 99.0 36.0 L 88.0 46.0 L 88.0 50.0 L 90.0 52.0 L 100.0 57.0 L 109.0 65.0 L 117.0 76.0 L 122.0 86.0 L 123.0 99.0 L 120.0 109.0 L 115.0 117.0 L 103.0 123.0 L 83.0 121.0 L 70.0 114.0 L 61.0 105.0 L 53.0 90.0 L 46.0 90.0 L 42.0 92.0 L 35.0 100.0 L 31.0 109.0 L 30.0 122.0 L 13.0 131.0 L 4.0 140.0 L 4.0 148.0 L 6.0 150.0 L 6.0 153.0 L 18.0 164.0 L 24.0 166.0 L 31.0 171.0 L 32.0 188.0 L 36.0 196.0 L 42.0 202.0 L 47.0 204.0 L 51.0 202.0 L 54.0 190.0 L 60.0 181.0 L 79.0 169.0 L 86.0 167.0 L 97.0 167.0 L 104.0 169.0 L 114.0 175.0 L 120.0 183.0 L 123.0 191.0 L 124.0 205.0 L 118.0 219.0 L 109.0 230.0 L 94.0 237.0 L 83.0 238.0 L 84.0 249.0 L 86.0 253.0 L 92.0 258.0 L 100.0 262.0 L 114.0 264.0 L 118.0 268.0 L 122.0 277.0 L 128.0 283.0 L 138.0 289.0 L 143.0 290.0 L 148.0 289.0 L 157.0 282.0 L 164.0 273.0 L 169.0 263.0 L 180.0 263.0 L 198.0 255.0 L 203.0 249.0 L 203.0 245.0 L 200.0 242.0 L 193.0 240.0 L 176.0 230.0 L 171.0 225.0 L 164.0 213.0 L 164.0 191.0 L 168.0 182.0 L 176.0 172.0 L 184.0 169.0 L 198.0 169.0 L 209.0 173.0 L 219.0 180.0 L 228.0 190.0 L 236.0 204.0 L 237.0 211.0 L 245.0 212.0 L 254.0 205.0 L 259.0 197.0 L 262.0 189.0 L 262.0 176.0 L 280.0 164.0 L 288.0 155.0 L 290.0 150.0 L 290.0 146.0 L 276.0 132.0 L 260.0 123.0 L 259.0 106.0 L 254.0 97.0 L 244.0 89.0 L 237.0 90.0 L 235.0 102.0 L 232.0 109.0 L 223.0 118.0 L 214.0 122.0 L 200.0 123.0 L 190.0 121.0 L 184.0 118.0 L 172.0 108.0 L 170.0 104.0 L 170.0 90.0 L 176.0 75.0 L 189.0 60.0 L 194.0 57.0 L 203.0 55.0 L 205.0 53.0 L 205.0 48.0 L 203.0 43.0 L 196.0 36.0 L 182.0 31.0 L 172.0 31.0 L 169.0 28.0 L 163.0 14.0 L 156.0 7.0 Z" fill="#282582"/>
</svg>
